<svg xmlns="http://www.w3.org/2000/svg" width="660" height="520" font-family="monospace" font-size="13">
  <title>Irish Flute D — Fingering Chart</title>
  <rect width="660" height="520" fill="#fffef8" rx="8"/>
  <text x="330" y="28" text-anchor="middle" font-size="17" font-weight="bold">Irish Flute in D — Fingering Chart</text>
  <text x="330" y="46" text-anchor="middle" font-size="11" fill="#555">● = hole covered  ○ = hole open  (same 6-hole system as D tin whistle)</text>
  <text x="10"  y="72" font-weight="bold">Note</text>
  <text x="70"  y="72" font-weight="bold">H1</text><text x="100" y="72" font-weight="bold">H2</text><text x="130" y="72" font-weight="bold">H3</text>
  <text x="160" y="72" font-weight="bold">H4</text><text x="190" y="72" font-weight="bold">H5</text><text x="220" y="72" font-weight="bold">H6</text>
  <text x="260" y="72" font-weight="bold">Oct</text>
  <text x="10"  y="96">D5</text>  <text x="70" y="96">●</text><text x="100" y="96">●</text><text x="130" y="96">●</text><text x="160" y="96">●</text><text x="190" y="96">●</text><text x="220" y="96">●</text><text x="260" y="96">1</text>
  <text x="10" y="116">E5</text>  <text x="70" y="116">●</text><text x="100" y="116">●</text><text x="130" y="116">●</text><text x="160" y="116">●</text><text x="190" y="116">●</text><text x="220" y="116">○</text><text x="260" y="116">1</text>
  <text x="10" y="136">F#5</text> <text x="70" y="136">●</text><text x="100" y="136">●</text><text x="130" y="136">●</text><text x="160" y="136">●</text><text x="190" y="136">○</text><text x="220" y="136">○</text><text x="260" y="136">1</text>
  <text x="10" y="156">G5</text>  <text x="70" y="156">●</text><text x="100" y="156">●</text><text x="130" y="156">●</text><text x="160" y="156">○</text><text x="190" y="156">○</text><text x="220" y="156">○</text><text x="260" y="156">1</text>
  <text x="10" y="176">A5</text>  <text x="70" y="176">●</text><text x="100" y="176">●</text><text x="130" y="176">○</text><text x="160" y="176">○</text><text x="190" y="176">○</text><text x="220" y="176">○</text><text x="260" y="176">1</text>
  <text x="10" y="196">B5</text>  <text x="70" y="196">●</text><text x="100" y="196">○</text><text x="130" y="196">○</text><text x="160" y="196">○</text><text x="190" y="196">○</text><text x="220" y="196">○</text><text x="260" y="196">1</text>
  <text x="10" y="216">C5</text>  <text x="70" y="216">○</text><text x="100" y="216">●</text><text x="130" y="216">●</text><text x="160" y="216">●</text><text x="190" y="216">●</text><text x="220" y="216">●</text><text x="260" y="216">1 (nat)</text>
  <text x="10" y="236">C#6</text> <text x="70" y="236">○</text><text x="100" y="236">●</text><text x="130" y="236">●</text><text x="160" y="236">●</text><text x="190" y="236">●</text><text x="220" y="236">○</text><text x="260" y="236">1</text>
  <text x="10" y="256">D6</text>  <text x="70" y="256">○</text><text x="100" y="256">○</text><text x="130" y="256">○</text><text x="160" y="256">○</text><text x="190" y="256">○</text><text x="220" y="256">○</text><text x="260" y="256">1/2</text>
  <text x="330" y="300" text-anchor="middle" fill="#555" font-size="11">2nd octave: same fingerings as 1st, increased breath pressure + firmer embouchure</text>
  <text x="330" y="316" text-anchor="middle" fill="#555" font-size="11">Irish simple-system flute: C natural key adds chromatic C — useful for mixolydian tunes</text>
  <text x="330" y="340" fill="#555" font-size="11" text-anchor="middle">Generated by sheet-music skill — Refs #1</text>
</svg>